<svg xmlns="http://www.w3.org/2000/svg" xmlns:xlink="http://www.w3.org/1999/xlink" preserveAspectRatio="xMidYMid" width="40.094" height="32.97" viewBox="0 0 40.094 32.97">
  <defs>
    <style>
      .cls-1 {
        fill: url(#linear-gradient-1);
        filter: url(#color-overlay-1);
        fill-rule: evenodd;
      }
    </style>

    <linearGradient id="linear-gradient-1" gradientUnits="userSpaceOnUse" x1="3.562" x2="36.532" y2="32.97">
      <stop offset="0" stop-color="#fff"/>
      <stop offset="1" stop-color="#fff"/>
    </linearGradient>
    <filter id="color-overlay-1" filterUnits="userSpaceOnUse">
      <feFlood flood-color="#ff3b4a"/>
      <feComposite operator="in" in2="SourceGraphic"/>
      <feBlend in2="SourceGraphic" result="solidFill"/>
    </filter>
  </defs>
  <path d="M40.081,10.416 C40.081,10.384 40.055,10.369 40.050,10.338 C40.042,10.269 40.055,10.199 40.026,10.133 L35.907,0.436 C35.793,0.171 35.530,-0.004 35.238,-0.004 L4.840,-0.004 C4.547,-0.004 4.284,0.171 4.171,0.436 L0.049,10.133 C0.020,10.199 0.033,10.269 0.023,10.338 C0.020,10.369 -0.006,10.384 -0.006,10.416 C-0.006,10.430 0.010,10.442 0.010,10.458 C0.020,10.616 0.065,10.767 0.173,10.892 L19.493,32.725 C19.508,32.744 19.537,32.736 19.553,32.756 C19.606,32.802 19.648,32.844 19.711,32.878 C19.724,32.883 19.727,32.906 19.745,32.912 C19.840,32.952 19.940,32.972 20.035,32.972 C20.132,32.972 20.232,32.952 20.327,32.912 C20.345,32.906 20.348,32.883 20.361,32.875 C20.424,32.844 20.467,32.802 20.517,32.756 C20.535,32.736 20.564,32.744 20.580,32.725 L39.900,10.892 C40.008,10.767 40.055,10.616 40.065,10.458 C40.065,10.442 40.081,10.430 40.081,10.416 ZM24.965,1.439 L28.518,9.695 L11.557,9.695 L15.113,1.439 L24.965,1.439 ZM28.508,11.137 L20.035,30.444 L11.567,11.137 L28.508,11.137 ZM9.983,11.137 L17.513,28.308 L2.321,11.137 L9.983,11.137 ZM30.092,11.137 L37.752,11.137 L22.559,28.305 L30.092,11.137 ZM38.265,9.695 L30.095,9.695 L26.542,1.439 L34.756,1.439 L38.265,9.695 ZM5.319,1.439 L13.539,1.439 L9.983,9.695 L1.810,9.695 L5.319,1.439 Z" class="cls-1"/>
</svg>
