<svg xmlns="http://www.w3.org/2000/svg" xmlns:xlink="http://www.w3.org/1999/xlink" preserveAspectRatio="xMidYMid" width="39.25" height="37" viewBox="0 0 39.25 37">
  <defs>
    <style>
      .cls-1 {
        fill: url(#linear-gradient-1);
        filter: url(#color-overlay-1);
        fill-rule: evenodd;
      }
    </style>

    <linearGradient id="linear-gradient-1" gradientUnits="userSpaceOnUse" x1="1.125" x2="38.125" y2="37">
      <stop offset="0" stop-color="#fff"/>
      <stop offset="1" stop-color="#fff"/>
    </linearGradient>
    <filter id="color-overlay-1" filterUnits="userSpaceOnUse">
      <feFlood flood-color="#ff3b4a"/>
      <feComposite operator="in" in2="SourceGraphic"/>
      <feBlend in2="SourceGraphic" result="solidFill"/>
    </filter>
  </defs>
  <path d="M39.200,12.911 C38.151,10.097 36.601,7.554 34.591,5.352 C32.593,3.163 30.201,1.390 27.478,0.082 C27.172,-0.063 26.805,-0.012 26.553,0.221 L9.065,16.183 L7.045,18.026 C6.936,18.113 6.842,18.229 6.785,18.371 C6.776,18.391 6.766,18.419 6.757,18.444 L2.055,30.654 L0.048,35.870 C-0.068,36.165 -0.001,36.497 0.211,36.733 C0.372,36.909 0.596,37.002 0.827,37.002 C0.903,37.002 0.981,36.993 1.057,36.969 L6.436,35.445 L19.085,31.858 C19.164,31.836 19.243,31.801 19.316,31.755 C19.355,31.727 19.395,31.697 19.431,31.667 L21.496,29.782 L38.981,13.819 C39.233,13.589 39.318,13.229 39.200,12.911 ZM3.280,32.117 C3.313,32.139 3.352,32.152 3.386,32.169 C3.744,32.394 4.077,32.642 4.353,32.948 C4.629,33.251 4.847,33.603 5.038,33.978 C5.060,34.012 5.069,34.054 5.084,34.091 L2.206,34.909 L3.280,32.117 ZM18.446,30.303 L6.733,33.624 C6.700,33.552 6.642,33.497 6.606,33.427 C6.336,32.840 6.011,32.287 5.587,31.821 C5.160,31.355 4.638,30.985 4.077,30.661 C4.007,30.620 3.965,30.558 3.895,30.521 L8.267,19.170 L9.577,17.981 L10.635,19.137 L19.749,29.112 L18.446,30.303 ZM20.983,27.985 L18.337,25.089 L32.238,12.406 C32.417,12.239 32.508,12.013 32.508,11.784 C32.508,11.587 32.438,11.384 32.290,11.224 C31.980,10.884 31.450,10.862 31.110,11.171 L17.209,23.856 L16.666,23.258 L14.583,20.974 L28.479,8.291 C28.660,8.123 28.752,7.899 28.752,7.669 C28.752,7.472 28.679,7.270 28.533,7.109 C28.221,6.770 27.690,6.749 27.351,7.057 L13.452,19.743 L10.811,16.849 L27.257,1.837 C29.576,3.024 31.629,4.581 33.357,6.482 C35.097,8.384 36.462,10.566 37.432,12.972 L20.983,27.985 Z" class="cls-1"/>
</svg>
