<svg xmlns="http://www.w3.org/2000/svg" xmlns:xlink="http://www.w3.org/1999/xlink" preserveAspectRatio="xMidYMid" width="40.094" height="40.188" viewBox="0 0 40.094 40.188">
  <defs>
    <style>
      .cls-1 {
        fill: url(#linear-gradient-1);
        filter: url(#color-overlay-1);
        fill-rule: evenodd;
      }
    </style>

    <linearGradient id="linear-gradient-1" gradientUnits="userSpaceOnUse" y1="0.047" x2="40.094" y2="40.141">
      <stop offset="0" stop-color="#fff"/>
      <stop offset="1" stop-color="#fff"/>
    </linearGradient>
    <filter id="color-overlay-1" filterUnits="userSpaceOnUse">
      <feFlood flood-color="#ff3b4a"/>
      <feComposite operator="in" in2="SourceGraphic"/>
      <feBlend in2="SourceGraphic" result="solidFill"/>
    </filter>
  </defs>
  <path d="M39.545,23.207 L34.565,24.459 C34.273,25.439 33.879,26.388 33.396,27.288 L36.040,31.704 C36.209,31.990 36.165,32.353 35.930,32.586 L32.516,36.016 C32.281,36.248 31.918,36.288 31.639,36.125 L27.233,33.473 C26.325,33.970 25.375,34.371 24.401,34.678 L23.169,39.641 C23.088,39.960 22.801,40.186 22.469,40.186 L17.638,40.189 C17.309,40.189 17.022,39.963 16.941,39.644 L15.704,34.681 C14.741,34.383 13.791,33.977 12.872,33.476 L8.471,36.125 C8.189,36.295 7.826,36.248 7.594,36.019 L4.175,32.588 C3.942,32.356 3.898,31.993 4.068,31.709 L6.709,27.302 C6.218,26.390 5.824,25.441 5.532,24.464 L0.557,23.217 C0.238,23.137 0.011,22.846 0.011,22.519 L0.011,17.675 C0.011,17.342 0.238,17.053 0.557,16.975 L5.503,15.737 C5.806,14.761 6.211,13.808 6.707,12.892 L4.065,8.477 C3.895,8.193 3.940,7.829 4.172,7.596 L7.586,4.173 C7.821,3.938 8.184,3.889 8.466,4.065 L12.867,6.711 C13.772,6.225 14.720,5.826 15.693,5.534 L16.936,0.544 C17.017,0.223 17.304,-0.003 17.633,-0.003 L22.464,-0.003 C22.793,-0.003 23.083,0.223 23.161,0.544 L24.398,5.510 C25.369,5.814 26.320,6.218 27.228,6.708 L31.634,4.056 C31.910,3.895 32.276,3.938 32.511,4.167 L35.925,7.591 C36.160,7.824 36.204,8.187 36.035,8.473 L33.393,12.892 C33.879,13.798 34.273,14.748 34.565,15.718 L39.545,16.970 C39.866,17.048 40.091,17.339 40.091,17.669 L40.091,22.510 C40.091,22.839 39.866,23.130 39.545,23.207 ZM38.653,18.232 L33.813,17.016 C33.560,16.955 33.362,16.759 33.294,16.506 C32.989,15.373 32.532,14.270 31.939,13.234 C31.811,13.010 31.814,12.730 31.947,12.504 L34.513,8.214 L31.892,5.586 L27.612,8.162 C27.390,8.297 27.113,8.303 26.883,8.168 C25.839,7.564 24.738,7.097 23.605,6.776 C23.357,6.708 23.166,6.510 23.104,6.259 L21.903,1.439 L18.197,1.439 L16.988,6.287 C16.926,6.539 16.730,6.740 16.479,6.807 C15.344,7.117 14.245,7.575 13.211,8.169 C12.987,8.303 12.710,8.300 12.483,8.162 L8.207,5.588 L5.587,8.219 L8.153,12.504 C8.288,12.730 8.288,13.010 8.158,13.236 C7.555,14.289 7.085,15.397 6.769,16.529 C6.699,16.781 6.500,16.972 6.250,17.035 L1.450,18.238 L1.450,21.953 L6.284,23.168 C6.537,23.231 6.735,23.427 6.803,23.679 C7.111,24.815 7.565,25.916 8.163,26.954 C8.293,27.181 8.291,27.462 8.155,27.686 L5.589,31.970 L8.213,34.602 L12.488,32.026 C12.603,31.957 12.731,31.922 12.859,31.922 C12.981,31.922 13.107,31.953 13.219,32.018 C14.274,32.628 15.378,33.096 16.497,33.408 C16.745,33.479 16.936,33.681 17.001,33.931 L18.202,38.746 L21.908,38.743 L23.106,33.926 C23.169,33.678 23.360,33.479 23.607,33.408 C24.743,33.089 25.844,32.620 26.886,32.017 C27.113,31.883 27.390,31.887 27.614,32.020 L31.895,34.600 L34.518,31.965 L31.947,27.676 C31.811,27.450 31.811,27.169 31.939,26.942 C32.532,25.914 32.986,24.817 33.294,23.672 C33.362,23.421 33.560,23.226 33.813,23.163 L38.653,21.946 L38.653,18.232 ZM20.055,25.657 C16.996,25.657 14.506,23.163 14.506,20.092 C14.506,17.023 16.996,14.529 20.055,14.529 C23.112,14.529 25.599,17.023 25.599,20.092 C25.599,23.163 23.112,25.657 20.055,25.657 ZM20.055,15.971 C17.787,15.971 15.944,17.820 15.944,20.092 C15.944,22.364 17.787,24.215 20.055,24.215 C22.318,24.215 24.161,22.364 24.161,20.092 C24.161,17.820 22.318,15.971 20.055,15.971 Z" class="cls-1"/>
</svg>
