<svg xmlns="http://www.w3.org/2000/svg" xmlns:xlink="http://www.w3.org/1999/xlink" preserveAspectRatio="xMidYMid" width="44" height="33" viewBox="0 0 44 33">
  <defs>
    <style>
      .cls-1 {
        fill: url(#linear-gradient-1);
        filter: url(#color-overlay-1);
        fill-rule: evenodd;
      }
    </style>

    <linearGradient id="linear-gradient-1" gradientUnits="userSpaceOnUse" x1="5.5" x2="38.5" y2="33">
      <stop offset="0" stop-color="#fff"/>
      <stop offset="1" stop-color="#fff"/>
    </linearGradient>
    <filter id="color-overlay-1" filterUnits="userSpaceOnUse">
      <feFlood flood-color="#ff3b4a"/>
      <feComposite operator="in" in2="SourceGraphic"/>
      <feBlend in2="SourceGraphic" result="solidFill"/>
    </filter>
  </defs>
  <path d="M43.955,16.626 L43.955,26.967 C43.955,27.399 43.599,27.747 43.164,27.747 L40.526,27.747 C40.091,27.747 39.739,27.399 39.739,26.967 C39.739,26.535 40.091,26.186 40.526,26.186 L42.376,26.186 L42.376,17.316 L35.250,17.316 C34.815,17.316 34.463,16.967 34.463,16.537 L34.463,6.822 L28.124,6.822 L28.124,21.141 C28.124,21.570 27.772,21.922 27.337,21.922 C26.901,21.922 26.546,21.570 26.546,21.141 L26.546,6.044 L26.546,1.552 L1.585,1.552 L1.585,26.186 L3.464,26.186 C3.899,26.186 4.254,26.535 4.254,26.967 C4.254,27.399 3.899,27.747 3.464,27.747 L0.797,27.747 C0.362,27.747 0.006,27.399 0.006,26.967 L0.006,0.775 C0.006,0.344 0.362,-0.004 0.797,-0.004 L27.337,-0.004 C27.772,-0.004 28.124,0.344 28.124,0.775 L28.124,5.262 L43.164,5.262 C43.599,5.262 43.955,5.613 43.955,6.044 L43.955,16.446 C43.957,16.482 43.992,16.501 43.992,16.537 C43.992,16.572 43.957,16.590 43.955,16.626 ZM42.376,6.822 L36.038,6.822 L36.038,15.756 L42.376,15.756 L42.376,6.822 ZM11.397,20.948 C14.754,20.948 17.487,23.648 17.487,26.967 C17.487,30.288 14.754,32.986 11.397,32.986 C8.038,32.986 5.308,30.288 5.308,26.967 C5.308,23.648 8.038,20.948 11.397,20.948 ZM11.397,31.427 C13.883,31.427 15.909,29.426 15.909,26.967 C15.909,24.508 13.883,22.510 11.397,22.510 C8.908,22.510 6.883,24.508 6.883,26.967 C6.883,29.426 8.908,31.427 11.397,31.427 ZM19.328,26.186 L24.667,26.186 C25.103,26.186 25.455,26.535 25.455,26.967 C25.455,27.399 25.103,27.747 24.667,27.747 L19.328,27.747 C18.893,27.747 18.541,27.399 18.541,26.967 C18.541,26.535 18.893,26.186 19.328,26.186 ZM32.601,20.952 C35.955,20.952 38.684,23.651 38.684,26.969 C38.684,30.289 35.955,32.989 32.601,32.989 C29.241,32.989 26.509,30.289 26.509,26.969 C26.509,23.651 29.241,20.952 32.601,20.952 ZM32.601,31.429 C35.084,31.429 37.106,29.429 37.106,26.969 C37.106,24.510 35.084,22.511 32.601,22.511 C30.112,22.511 28.087,24.510 28.087,26.969 C28.087,29.429 30.112,31.429 32.601,31.429 Z" class="cls-1"/>
</svg>
